<svg xmlns="http://www.w3.org/2000/svg" version="1.1" xmlns:xlink="http://www.w3.org/1999/xlink" xmlns:svgjs="http://svgjs.dev/svgjs" width="1500" height="1500" viewBox="0 0 1500 1500"><rect width="1500" height="1500" fill="#000000"></rect><g transform="matrix(0.6666666666666666,0,0,0.6666666666666666,249.39393939393938,692.2895087521175)"><svg viewBox="0 0 396 46" data-background-color="#020506" preserveAspectRatio="xMidYMid meet" height="174" width="1500" xmlns="http://www.w3.org/2000/svg" xmlns:xlink="http://www.w3.org/1999/xlink"><g id="tight-bounds" transform="matrix(1,0,0,1,0.2400000000000091,-0.11480519480520002)"><svg viewBox="0 0 395.52 46.22961038961039" height="46.22961038961039" width="395.52"><g><svg viewBox="0 0 395.52 46.22961038961039" height="46.22961038961039" width="395.52"><g><svg viewBox="0 0 395.52 46.22961038961039" height="46.22961038961039" width="395.52"><g id="textblocktransform"><svg viewBox="0 0 395.52 46.22961038961039" height="46.22961038961039" width="395.52" id="textblock"><g><svg viewBox="0 0 395.52 46.22961038961039" height="46.22961038961039" width="395.52"><g transform="matrix(1,0,0,1,0,0)"><svg width="395.52" viewBox="4.6 -37.1 319.52 37.35" height="46.22961038961039" data-palette-color="#0f25ff"><path d="M4.6 0L4.6-35 10.5-35 10.5 0 4.6 0ZM39.05 0L39.05-15Q39.05-18.1 37.35-19.88 35.65-21.65 32.65-21.65L32.65-21.65Q29.1-21.6 27.07-19.15 25.05-16.7 25.05-13.05L25.05-13.05 23.45-13.05Q23.45-18 24.85-21 26.25-24 28.82-25.38 31.4-26.75 34.9-26.75L34.9-26.75Q38-26.75 40.22-25.5 42.45-24.25 43.62-21.98 44.8-19.7 44.8-16.5L44.8-16.5 44.8 0 39.05 0ZM19.35 0L19.35-26.55 25.1-26.55 25.1 0 19.35 0ZM58.6 0L48.3-26.55 54.3-26.55 61.7-5.3 69-26.55 74.75-26.55 64.55 0 58.6 0ZM80.89-15.2L97.14-15.2Q97.04-17.45 96.12-19.03 95.19-20.6 93.54-21.48 91.89-22.35 89.74-22.35L89.74-22.35Q87.34-22.35 85.57-21.25 83.79-20.15 82.79-18.18 81.79-16.2 81.79-13.55L81.79-13.55Q81.79-10.7 82.87-8.6 83.94-6.5 85.87-5.35 87.79-4.2 90.29-4.2L90.29-4.2Q94.74-4.2 97.79-7.35L97.79-7.35 100.84-4.3Q98.89-2.15 96.09-0.98 93.29 0.2 89.84 0.2L89.84 0.2Q85.74 0.2 82.69-1.5 79.64-3.2 77.94-6.23 76.24-9.25 76.24-13.25L76.24-13.25Q76.24-17.25 77.94-20.28 79.64-23.3 82.69-25 85.74-26.7 89.69-26.75L89.69-26.75Q94.39-26.75 97.24-24.83 100.09-22.9 101.29-19.4 102.49-15.9 102.14-11.1L102.14-11.1 80.89-11.1 80.89-15.2ZM127.84 0L127.84-15Q127.84-18.1 126.14-19.88 124.44-21.65 121.44-21.65L121.44-21.65Q117.89-21.6 115.87-19.15 113.84-16.7 113.84-13.05L113.84-13.05 112.24-13.05Q112.24-18 113.64-21 115.04-24 117.62-25.38 120.19-26.75 123.69-26.75L123.69-26.75Q126.79-26.75 129.02-25.5 131.24-24.25 132.42-21.98 133.59-19.7 133.59-16.5L133.59-16.5 133.59 0 127.84 0ZM108.14 0L108.14-26.55 113.89-26.55 113.89 0 108.14 0ZM148.04-32.85L148.04-8.4Q148.04-6.25 148.79-5.48 149.54-4.7 150.89-4.7L150.89-4.7Q151.79-4.7 152.76-5 153.74-5.3 154.89-5.9L154.89-5.9 156.34-1.75Q154.79-0.8 153.14-0.28 151.49 0.25 149.79 0.25L149.79 0.25Q147.79 0.25 146.09-0.53 144.39-1.3 143.36-3 142.34-4.7 142.34-7.4L142.34-7.4 142.34-32.85 148.04-32.85ZM138.59-21.5L138.59-25.6 155.89-25.6 155.89-21.5 138.59-21.5ZM173.04-26.75L173.04-26.75Q177.14-26.75 180.26-25.05 183.39-23.35 185.14-20.33 186.89-17.3 186.89-13.3L186.89-13.3Q186.89-9.3 185.14-6.25 183.39-3.2 180.26-1.5 177.14 0.2 173.04 0.2L173.04 0.2Q168.94 0.2 165.79-1.5 162.64-3.2 160.89-6.25 159.14-9.3 159.14-13.3L159.14-13.3Q159.14-17.3 160.89-20.33 162.64-23.35 165.79-25.05 168.94-26.75 173.04-26.75ZM173.04-22.1L173.04-22.1Q170.64-22.1 168.79-20.98 166.94-19.85 165.91-17.85 164.89-15.85 164.89-13.25L164.89-13.25Q164.89-10.6 165.91-8.6 166.94-6.6 168.79-5.48 170.64-4.35 173.04-4.35L173.04-4.35Q175.44-4.35 177.26-5.48 179.09-6.6 180.11-8.6 181.14-10.6 181.14-13.25L181.14-13.25Q181.14-15.85 180.11-17.85 179.09-19.85 177.26-20.98 175.44-22.1 173.04-22.1ZM189.08-29.95L189.08-35 217.13-35 217.13-29.95 206.03-29.95 206.03 0 200.13 0 200.13-29.95 189.08-29.95ZM236.78-26.75L236.78-21.55Q233.93-21.7 231.86-20.58 229.78-19.45 228.66-17.45 227.53-15.45 227.53-12.85L227.53-12.85 225.93-13.05Q225.93-17.5 227.23-20.55 228.53-23.6 230.98-25.18 233.43-26.75 236.78-26.75L236.78-26.75ZM221.83 0L221.83-26.55 227.58-26.55 227.58 0 221.83 0ZM258.18-11.85L250.23-11.85Q247.43-11.85 246.08-11 244.73-10.15 244.73-8.2L244.73-8.2Q244.73-6.35 246.1-5.25 247.48-4.15 249.88-4.15L249.88-4.15Q252.03-4.15 253.73-4.9 255.43-5.65 256.43-6.93 257.43-8.2 257.48-9.8L257.48-9.8 258.58-4.95Q257.33-2.35 254.78-1.05 252.23 0.25 248.68 0.25L248.68 0.25Q245.83 0.25 243.73-0.85 241.63-1.95 240.48-3.83 239.33-5.7 239.33-8L239.33-8Q239.33-11.6 241.95-13.75 244.58-15.9 249.38-15.95L249.38-15.95 258.18-15.95 258.18-11.85ZM257.48 0L257.43-16.85Q257.43-19.45 255.83-20.9 254.23-22.35 251.08-22.35L251.08-22.35Q249.18-22.35 247.2-21.65 245.23-20.95 243.23-19.6L243.23-19.6 240.88-23.3Q242.73-24.45 244.38-25.2 246.03-25.95 247.9-26.35 249.78-26.75 252.33-26.75L252.33-26.75Q257.48-26.75 260.25-24.28 263.03-21.8 263.08-17.45L263.08-17.45 263.13 0 257.48 0ZM292.73-22.65L289.58-18.95Q288.18-20.4 286.28-21.2 284.38-22 281.98-22L281.98-22Q279.68-22 277.88-20.9 276.08-19.8 275.08-17.82 274.08-15.85 274.08-13.25L274.08-13.25Q274.08-10.65 275.08-8.68 276.08-6.7 277.88-5.58 279.68-4.45 281.98-4.45L281.98-4.45Q284.48-4.45 286.48-5.28 288.48-6.1 289.83-7.7L289.83-7.7 293.03-4.55Q291.23-2.3 288.35-1.05 285.48 0.2 281.73 0.2L281.73 0.2Q277.78 0.2 274.75-1.5 271.73-3.2 270.03-6.23 268.33-9.25 268.33-13.25L268.33-13.25Q268.33-17.25 270.03-20.28 271.73-23.3 274.75-25.03 277.78-26.75 281.73-26.75L281.73-26.75Q285.33-26.75 288.1-25.68 290.88-24.6 292.73-22.65L292.73-22.65ZM299.27 0L299.27-37.1 305.02-37.1 305.02 0 299.27 0ZM304.57-13.9L316.77-26.55 323.37-26.55 304.57-7.05 304.57-13.9ZM308.72-13.65L312.97-17.1 324.12 0 317.32 0 308.72-13.65Z" opacity="1" transform="matrix(1,0,0,1,0,0)" fill="#ffffff" class="wordmark-text-0" data-fill-palette-color="primary" id="text-0"></path></svg></g></svg></g></svg></g></svg></g></svg></g><defs></defs></svg><rect width="395.52" height="46.22961038961039" fill="none" stroke="none" visibility="hidden"></rect></g></svg></g></svg>